<?xml version="1.0" encoding="UTF-8"?>
<svg version="1.1" xmlns="http://www.w3.org/2000/svg" width="1500" height="300">
    <path
        d="M0 0 C0.50982422 0.40444336 1.01964844 0.80888672 1.54492188 1.22558594 C22.91460695 18.27259162 39.37323258 40.91671499 48 67 C48 67.99 48 68.98 48 70 C28.53 70 9.06 70 -11 70 C-11.66 73.63 -12.32 77.26 -13 81 C-13.42003497 82.92074522 -13.85765187 84.83792939 -14.32861328 86.74682617 C-14.56871124 87.72701218 -14.8088092 88.70719818 -15.05618286 89.71708679 C-15.43442703 91.23964836 -15.43442703 91.23964836 -15.8203125 92.79296875 C-16.08383514 93.86501053 -16.34735779 94.93705231 -16.61886597 96.0415802 C-17.45113979 99.42432724 -18.28798784 102.80592264 -19.125 106.1875 C-19.69431479 108.4979719 -20.26332804 110.80851812 -20.83203125 113.11914062 C-22.21787199 118.74695703 -23.60745758 124.37383833 -25 130 C-25.66 130 -26.32 130 -27 130 C-30.33997964 118.00184169 -33.67362068 106.00193621 -37 94 C-37.350625 92.73542969 -37.70125 91.47085938 -38.0625 90.16796875 C-38.91975061 87.07115093 -39.77336473 83.97336594 -40.625 80.875 C-40.9955249 79.53767822 -40.9955249 79.53767822 -41.37353516 78.17333984 C-43 72.23191031 -43 72.23191031 -43 70 C-50.26 70 -57.52 70 -65 70 C-65.81404297 73.54427734 -65.81404297 73.54427734 -66.64453125 77.16015625 C-68.87610058 86.72431058 -71.38830888 96.20851782 -73.9465332 105.68969727 C-74.70044843 108.48551798 -75.44908634 111.28271757 -76.19726562 114.08007812 C-76.67677697 115.86466568 -77.1565831 117.64917406 -77.63671875 119.43359375 C-77.85962082 120.2667662 -78.08252289 121.09993866 -78.31217957 121.95835876 C-79.88472814 127.76945629 -79.88472814 127.76945629 -81 130 C-81.66 130 -82.32 130 -83 130 C-84.56960893 123.20138185 -86.13584596 116.40199338 -87.69970703 109.60205078 C-88.23245302 107.28741738 -88.76597942 104.97296345 -89.30029297 102.65869141 C-90.06681804 99.33803087 -90.83056207 96.01674138 -91.59375 92.6953125 C-91.83436157 91.65569366 -92.07497314 90.61607483 -92.32287598 89.54495239 C-92.54310425 88.58410736 -92.76333252 87.62326233 -92.99023438 86.63330078 C-93.18564819 85.78502716 -93.38106201 84.93675354 -93.58239746 84.06277466 C-94 82 -94 82 -94 80 C-114.46 80 -134.92 80 -156 80 C-156 89.24 -156 98.48 -156 108 C-146.43 108 -136.86 108 -127 108 C-127 117.9 -127 127.8 -127 138 C-138.7356163 141.52068489 -138.7356163 141.52068489 -145.375 141.8125 C-146.10468994 141.84819092 -146.83437988 141.88388184 -147.58618164 141.9206543 C-160.71451357 142.38936877 -172.76116756 139.40267208 -182.96875 130.90234375 C-192.75412694 121.73796189 -197.15676154 109.20051478 -198 96 C-197.98409103 81.4114777 -194.47270763 67.81180418 -184.5 56.75 C-174.87595771 47.77248646 -161.87983762 43.44584067 -148.88671875 43.75390625 C-137.69141905 44.70830934 -126.77334854 48.66884172 -119 57 C-110.28620948 53.37741293 -100.148588 40.29717601 -96 32 C-117.07081111 15.9233992 -142.80605817 11.03628557 -168.85449219 14.36474609 C-173.99287446 15.27055683 -178.98974358 16.55341385 -184 18 C-185.32936671 18.37781666 -186.65879113 18.75543032 -187.98828125 19.1328125 C-188.98214844 19.41898438 -189.97601563 19.70515625 -191 20 C-181.03340345 0.0668069 -151.63240876 -14.8810548 -131.55175781 -21.84960938 C-126.42268172 -23.46059896 -121.23713132 -24.79184751 -116 -26 C-114.51693359 -26.34998047 -114.51693359 -26.34998047 -113.00390625 -26.70703125 C-74.22631125 -35.1159013 -30.85903441 -24.81355106 0 0 Z "
        fill="#070707" transform="translate(239,36)" />
    <path
        d="M0 0 C3.3 0 6.6 0 10 0 C10 23.76 10 47.52 10 72 C16.6 72 23.2 72 30 72 C30 48.24 30 24.48 30 0 C35.61 0 41.22 0 47 0 C52.58291224 39.08038568 44.61530772 76.66185779 21.04296875 108.65625 C19.09258202 111.16672742 17.0732225 113.590068 15 116 C14.19046875 116.95519531 13.3809375 117.91039062 12.546875 118.89453125 C-10.88867941 145.89665004 -45.6024505 162.06886307 -81 165 C-119.38137607 167.42363134 -156.0634571 154.83103053 -185.00634766 129.59350586 C-206.9531216 109.91633429 -226.07097334 80.94780317 -229 51 C-226.73769237 53.19375286 -224.53366359 55.33110286 -222.56640625 57.796875 C-210.56194324 72.76503337 -190.02634489 81.71363703 -171.27905273 83.8190918 C-148.47989531 85.62885887 -124.39869853 83.83318541 -103.69921875 73.32421875 C-98.59004734 71.49527566 -93.93986058 71.67605429 -88.5625 71.8125 C-87.54478516 71.82603516 -86.52707031 71.83957031 -85.47851562 71.85351562 C-82.98511786 71.8886339 -80.49284488 71.93781441 -78 72 C-77.90396484 71.0922583 -77.80792969 70.1845166 -77.70898438 69.24926758 C-76.91095316 63.70029401 -75.22473097 58.38224482 -73.65625 53.01171875 C-73.32709595 51.87217239 -72.99794189 50.73262604 -72.65881348 49.55854797 C-71.96502699 47.16005278 -71.26897674 44.76221138 -70.57080078 42.36499023 C-69.49905635 38.68425918 -68.43449822 35.00150761 -67.37109375 31.31835938 C-66.69573071 28.98685798 -66.01996359 26.65547359 -65.34375 24.32421875 C-65.02394165 23.21906418 -64.7041333 22.11390961 -64.37463379 20.9752655 C-64.07762573 19.9569313 -63.78061768 18.93859711 -63.47460938 17.8894043 C-63.08275452 16.54207466 -63.08275452 16.54207466 -62.6829834 15.16752625 C-62 13 -62 13 -61 11 C-60.34 11 -59.68 11 -59 11 C-54.39668477 26.20508452 -49.83376983 41.42111144 -45.4375 56.6875 C-45.09138672 57.87956055 -44.74527344 59.07162109 -44.38867188 60.29980469 C-44.07349609 61.40098633 -43.75832031 62.50216797 -43.43359375 63.63671875 C-43.15572021 64.60311279 -42.87784668 65.56950684 -42.59155273 66.56518555 C-42 69 -42 69 -42 72 C-31.605 71.505 -31.605 71.505 -21 71 C-20.09906616 67.82709351 -20.09906616 67.82709351 -19.17993164 64.59008789 C-17.19922646 57.61627149 -15.2149055 50.64348776 -13.22878361 43.6712122 C-12.02422619 39.44219184 -10.82090484 35.21282777 -9.62036133 30.98266602 C-8.4626213 26.90349431 -7.30169598 22.82524181 -6.13851738 18.74761772 C-5.69439577 17.18855819 -5.25144036 15.62916598 -4.80964851 14.06944466 C-4.19263263 11.89185057 -3.5715522 9.71545587 -2.94946289 7.53930664 C-2.59638565 6.29798477 -2.24330841 5.0566629 -1.87953186 3.77772522 C-1 1 -1 1 0 0 Z "
        fill="#06AC06" transform="translate(245,124)" />
    <path
        d="M0 0 C6.435 -0.0825 12.87 -0.165 19.5 -0.25 C22.52317383 -0.30462402 22.52317383 -0.30462402 25.60742188 -0.36035156 C27.22785379 -0.37204801 28.84829758 -0.38223757 30.46875 -0.390625 C31.29149414 -0.41108887 32.11423828 -0.43155273 32.96191406 -0.45263672 C39.96738001 -0.45681161 45.30725202 1.37811381 50.375 6.3125 C53.66744839 11.75770311 54.44631789 16.65628003 53.5390625 22.859375 C52.15440593 28.35786632 48.55446449 31.88963401 44 35 C42.34324223 35.69092395 40.67763423 36.36143472 39 37 C39.44988281 37.36867187 39.89976563 37.73734375 40.36328125 38.1171875 C48.07897244 45.07522564 52.84930099 54.10023024 58 63 C59.7492817 60.37607745 60.78675211 58.23103034 61.90771484 55.32006836 C62.2750473 54.37155502 62.64237976 53.42304169 63.02084351 52.44578552 C63.41357452 51.42082474 63.80630554 50.39586395 64.2109375 49.33984375 C64.62034576 48.28019913 65.02975403 47.2205545 65.4515686 46.12879944 C66.76280641 42.73301013 68.06905004 39.33532599 69.375 35.9375 C70.67485062 32.56507761 71.97572361 29.19305162 73.27700806 25.82118225 C74.08615858 23.72347888 74.89430293 21.62538703 75.70126343 19.52684021 C77.52432005 14.79117287 79.35713748 10.05936771 81.21728516 5.33813477 C81.69616684 4.12021996 81.69616684 4.12021996 82.1847229 2.87770081 C83 1 83 1 84 0 C86.35313555 -0.07271741 88.70833668 -0.08370868 91.0625 -0.0625 C92.99802734 -0.04896484 92.99802734 -0.04896484 94.97265625 -0.03515625 C95.97167969 -0.02355469 96.97070312 -0.01195313 98 0 C101.57941971 6.81289843 104.40752018 13.83069832 107.203125 20.99609375 C107.69037724 22.23790648 108.17791061 23.47960894 108.66571045 24.72120667 C109.67982827 27.30469975 110.69148221 29.88913838 111.70117188 32.47436523 C112.99765357 35.79369054 114.29896709 39.11109522 115.60191727 42.42788601 C116.84593744 45.59569196 118.08701046 48.7646482 119.328125 51.93359375 C119.79679993 53.12826767 120.26547485 54.32294159 120.74835205 55.55381775 C121.17589783 56.64908279 121.6034436 57.74434784 122.04394531 58.87280273 C122.42270813 59.84128647 122.80147095 60.8097702 123.19171143 61.80760193 C124 64 124 64 124 65 C119.05 65 114.1 65 109 65 C104 53.375 104 53.375 104 50 C95.42 50 86.84 50 78 50 C77.67 51.98 77.34 53.96 77 56 C76.02734375 58.5546875 76.02734375 58.5546875 74.9375 60.875 C74.57527344 61.65617187 74.21304687 62.43734375 73.83984375 63.2421875 C73.42412109 64.11230469 73.42412109 64.11230469 73 65 C46.65575752 68.34635129 46.65575752 68.34635129 39.22216797 63.00341797 C34.83398076 58.06848712 31.84027435 52.42886121 29.24731445 46.38183594 C27.72529074 43.47542307 26.67249024 41.95636716 24 40 C20.7 39.34 17.4 38.68 14 38 C14 46.91 14 55.82 14 65 C9.38 65 4.76 65 0 65 C0 43.55 0 22.1 0 0 Z M14 11 C14 16.28 14 21.56 14 27 C16.495625 27.04125 18.99125 27.0825 21.5625 27.125 C22.33408447 27.14320801 23.10566895 27.16141602 23.90063477 27.18017578 C28.64736715 27.21768023 32.52260564 26.61479796 37 25 C39.4282022 23.00442887 39.4282022 23.00442887 39.3125 19.0625 C39.24118874 16.43824549 39.19106572 15.29615186 37.75 13.0625 C34.53999566 11.11356879 31.36746975 10.87594664 27.671875 10.90234375 C26.47304687 10.90717773 26.47304687 10.90717773 25.25 10.91210938 C24.0125 10.92467773 24.0125 10.92467773 22.75 10.9375 C21.90953125 10.94201172 21.0690625 10.94652344 20.203125 10.95117188 C18.13538599 10.96292039 16.06768376 10.98085478 14 11 Z M90 18 C88.82504857 20.93425371 87.66149148 23.87289513 86.5 26.8125 C86.16613281 27.64587891 85.83226562 28.47925781 85.48828125 29.33789062 C85.17246094 30.14033203 84.85664062 30.94277344 84.53125 31.76953125 C84.09135742 32.87711792 84.09135742 32.87711792 83.64257812 34.00708008 C82.84656334 36.12688312 82.84656334 36.12688312 83 39 C88.28 39 93.56 39 99 39 C96.11031505 28.77651194 96.11031505 28.77651194 92 19 C91.34 18.67 90.68 18.34 90 18 Z "
        fill="#111111" transform="translate(1110,109)" />
    <path
        d="M0 0 C4.62 0 9.24 0 14 0 C17.3260707 12.93471939 20.21866713 25.93803675 23 39 C25.12576815 35.29023226 26.0822566 31.31549677 27.12890625 27.20703125 C27.32346909 26.46039719 27.51803192 25.71376312 27.7184906 24.94450378 C28.33739331 22.56824373 28.95049429 20.19054499 29.5625 17.8125 C30.17843957 15.42384461 30.79569263 13.0355688 31.41722107 10.64836121 C31.80344674 9.1646234 32.18639849 7.68002889 32.56581116 6.1945343 C33.88751598 1.11248402 33.88751598 1.11248402 35 0 C37.69654854 -0.07319621 40.36691458 -0.09242537 43.0625 -0.0625 C43.82111328 -0.05798828 44.57972656 -0.05347656 45.36132812 -0.04882812 C47.24091871 -0.0370068 49.12046899 -0.01907078 51 0 C54.84358527 13.6226186 58.45058572 27.29761001 62 41 C64.97 27.47 67.94 13.94 71 0 C75.62 0 80.24 0 85 0 C83.61141395 8.04735417 81.89425622 15.95404441 79.9609375 23.88671875 C79.67521881 25.06974075 79.38950012 26.25276276 79.09512329 27.47163391 C78.19131646 31.21096498 77.28323125 34.94924138 76.375 38.6875 C75.75752824 41.23886351 75.14033798 43.79029517 74.5234375 46.34179688 C73.01887776 52.56199035 71.51048287 58.78124234 70 65 C65.05 65 60.1 65 55 65 C50.74965127 50.39507831 46.77524719 35.73479383 43 21 C39.63718034 30.45928626 37.26867152 40.18218419 34.75585938 49.89257812 C34.16035048 52.189541 33.56079859 54.4854206 32.9609375 56.78125 C32.77864594 57.49156372 32.59635437 58.20187744 32.40853882 58.93371582 C31.11293581 63.88706419 31.11293581 63.88706419 30 65 C27.46950598 65.07313567 24.96695163 65.09247527 22.4375 65.0625 C21.72658203 65.05798828 21.01566406 65.05347656 20.28320312 65.04882812 C18.52209987 65.03700864 16.76103964 65.01907263 15 65 C13.34179607 58.15488907 11.68828794 51.30865545 10.0378418 44.46166992 C9.47736612 42.13882571 8.91586684 39.81622821 8.35327148 37.49389648 C5.33548022 25.03377165 2.38565334 12.59792378 0 0 Z "
        fill="#131313" transform="translate(641,109)" />
    <path
        d="M0 0 C6.435 -0.0825 12.87 -0.165 19.5 -0.25 C22.52317383 -0.30462402 22.52317383 -0.30462402 25.60742188 -0.36035156 C27.22785379 -0.37204801 28.84829758 -0.38223757 30.46875 -0.390625 C31.29149414 -0.41108887 32.11423828 -0.43155273 32.96191406 -0.45263672 C39.96738001 -0.45681161 45.30725202 1.37811381 50.375 6.3125 C53.66744839 11.75770311 54.44631789 16.65628003 53.5390625 22.859375 C52.15440593 28.35786632 48.55446449 31.88963401 44 35 C42.34324223 35.69092395 40.67763423 36.36143472 39 37 C39.43828125 37.35707031 39.8765625 37.71414062 40.328125 38.08203125 C48.25706356 45.2212991 53.79733861 54.76110557 59 64 C59 64.33 59 64.66 59 65 C53.27796859 66.30927837 47.5654404 67.34995701 42 65 C36.53709107 59.84233789 32.97083432 52.95650763 29.46948242 46.38183594 C27.77608886 43.63706976 26.61165553 41.93587239 24 40 C20.7 39.34 17.4 38.68 14 38 C14 46.91 14 55.82 14 65 C9.38 65 4.76 65 0 65 C0 43.55 0 22.1 0 0 Z M14 11 C14 16.28 14 21.56 14 27 C16.495625 27.04125 18.99125 27.0825 21.5625 27.125 C22.33408447 27.14320801 23.10566895 27.16141602 23.90063477 27.18017578 C28.64736715 27.21768023 32.52260564 26.61479796 37 25 C39.4282022 23.00442887 39.4282022 23.00442887 39.3125 19.0625 C39.24118874 16.43824549 39.19106572 15.29615186 37.75 13.0625 C34.53999566 11.11356879 31.36746975 10.87594664 27.671875 10.90234375 C26.47304687 10.90717773 26.47304687 10.90717773 25.25 10.91210938 C24.0125 10.92467773 24.0125 10.92467773 22.75 10.9375 C21.90953125 10.94201172 21.0690625 10.94652344 20.203125 10.95117188 C18.13538599 10.96292039 16.06768376 10.98085478 14 11 Z "
        fill="#121212" transform="translate(1045,109)" />
    <path
        d="M0 0 C6.435 -0.0825 12.87 -0.165 19.5 -0.25 C22.52317383 -0.30462402 22.52317383 -0.30462402 25.60742188 -0.36035156 C27.22785379 -0.37204801 28.84829758 -0.38223757 30.46875 -0.390625 C31.29149414 -0.41108887 32.11423828 -0.43155273 32.96191406 -0.45263672 C39.96738001 -0.45681161 45.30725202 1.37811381 50.375 6.3125 C53.66744839 11.75770311 54.44631789 16.65628003 53.5390625 22.859375 C52.15440593 28.35786632 48.55446449 31.88963401 44 35 C42.34324223 35.69092395 40.67763423 36.36143472 39 37 C39.43828125 37.35707031 39.8765625 37.71414062 40.328125 38.08203125 C48.25706356 45.2212991 53.79733861 54.76110557 59 64 C59 64.33 59 64.66 59 65 C53.27796859 66.30927837 47.5654404 67.34995701 42 65 C36.53709107 59.84233789 32.97083432 52.95650763 29.46948242 46.38183594 C27.77608886 43.63706976 26.61165553 41.93587239 24 40 C20.7 39.34 17.4 38.68 14 38 C14 46.91 14 55.82 14 65 C9.38 65 4.76 65 0 65 C0 43.55 0 22.1 0 0 Z M14 11 C14 16.28 14 21.56 14 27 C16.495625 27.04125 18.99125 27.0825 21.5625 27.125 C22.33408447 27.14320801 23.10566895 27.16141602 23.90063477 27.18017578 C28.64736715 27.21768023 32.52260564 26.61479796 37 25 C39.4282022 23.00442887 39.4282022 23.00442887 39.3125 19.0625 C39.24118874 16.43824549 39.19106572 15.29615186 37.75 13.0625 C34.53999566 11.11356879 31.36746975 10.87594664 27.671875 10.90234375 C26.47304688 10.90717773 26.47304688 10.90717773 25.25 10.91210938 C24.0125 10.92467773 24.0125 10.92467773 22.75 10.9375 C21.90953125 10.94201172 21.0690625 10.94652344 20.203125 10.95117188 C18.13538599 10.96292039 16.06768376 10.98085478 14 11 Z "
        fill="#121212" transform="translate(397,109)" />
    <path
        d="M0 0 C14 0 14 0 17.03881836 2.37988281 C17.63315674 3.47655273 18.22749512 4.57322266 18.83984375 5.703125 C19.18076553 6.29615417 19.52168732 6.88918335 19.87294006 7.50018311 C20.94629898 9.39303731 21.94102731 11.31577057 22.9375 13.25 C23.62856665 14.5001154 24.32450616 15.74754997 25.02539062 16.9921875 C26.33768843 19.33700041 27.61143275 21.6905541 28.86694336 24.06738281 C31.78559306 29.44836134 34.91552538 34.71232922 38 40 C38.33 26.8 38.66 13.6 39 0 C43.29 0 47.58 0 52 0 C52 21.45 52 42.9 52 65 C38 65 38 65 34.96118164 62.62011719 C34.36684326 61.52344727 33.77250488 60.42677734 33.16015625 59.296875 C32.81923447 58.70384583 32.47831268 58.11081665 32.12705994 57.49981689 C31.05370102 55.60696269 30.05897269 53.68422943 29.0625 51.75 C28.37143335 50.4998846 27.67549384 49.25245003 26.97460938 48.0078125 C25.66231157 45.66299959 24.38856725 43.3094459 23.13305664 40.93261719 C20.21440694 35.55163866 17.08447462 30.28767078 14 25 C13.67 38.2 13.34 51.4 13 65 C8.71 65 4.42 65 0 65 C0 43.55 0 22.1 0 0 Z "
        fill="#161616" transform="translate(582,109)" />
    <path
        d="M0 0 C4.74077082 3.57045501 7.62286702 8.01273343 9.1171875 13.78125 C8.6221875 15.26625 8.6221875 15.26625 8.1171875 16.78125 C1.6821875 17.27625 1.6821875 17.27625 -4.8828125 17.78125 C-5.3778125 16.688125 -5.8728125 15.595 -6.3828125 14.46875 C-8.52362068 10.76552743 -10.60394342 9.37079455 -14.66796875 8.15234375 C-20.07196173 7.24691283 -24.38318134 8.03143442 -29.2578125 10.46875 C-33.86862893 14.53065971 -35.63421061 19.4777133 -36.0859375 25.48046875 C-36.21305683 33.58432578 -35.66299904 40.15156202 -30.6328125 46.71875 C-25.33591979 50.69141953 -20.39082382 51.16334373 -14.03125 50.2734375 C-11.04422169 49.58913647 -8.54283737 48.27345907 -5.8828125 46.78125 C-5.2228125 46.78125 -4.5628125 46.78125 -3.8828125 46.78125 C-3.8828125 43.81125 -3.8828125 40.84125 -3.8828125 37.78125 C-8.8328125 37.78125 -13.7828125 37.78125 -18.8828125 37.78125 C-18.8828125 34.15125 -18.8828125 30.52125 -18.8828125 26.78125 C-9.3128125 26.78125 0.2571875 26.78125 10.1171875 26.78125 C10.3234375 31.1125 10.5296875 35.44375 10.7421875 39.90625 C10.87874756 41.93869873 10.87874756 41.93869873 11.01806641 44.01220703 C11.09850645 47.49500138 11.01931924 50.40787197 10.1171875 53.78125 C7.16244707 56.77803985 4.01019321 58.27864808 0.1171875 59.78125 C-0.69282715 60.12357666 -1.5028418 60.46590332 -2.33740234 60.81860352 C-11.24311283 64.35757649 -23.61230688 64.42759173 -32.5703125 61.09375 C-41.8113068 56.57488815 -46.7731029 49.53500345 -50.2578125 40.03125 C-52.59187004 27.99626583 -51.07236632 16.70994026 -44.2578125 6.46875 C-34.20740398 -5.99170546 -13.25500177 -8.58000114 0 0 Z "
        fill="#141414" transform="translate(375.8828125,112.21875)" />
    <path
        d="M0 0 C16.17 0 32.34 0 49 0 C49 3.63 49 7.26 49 11 C37.45 11 25.9 11 14 11 C14 15.62 14 20.24 14 25 C24.56 25 35.12 25 46 25 C46 28.63 46 32.26 46 36 C35.44 36 24.88 36 14 36 C14 41.94 14 47.88 14 54 C25.88 54 37.76 54 50 54 C50 57.63 50 61.26 50 65 C33.5 65 17 65 0 65 C0 43.55 0 22.1 0 0 Z "
        fill="#0B0B0B" transform="translate(1288,109)" />
    <path
        d="M0 0 C16.17 0 32.34 0 49 0 C49 3.63 49 7.26 49 11 C37.45 11 25.9 11 14 11 C14 15.62 14 20.24 14 25 C24.56 25 35.12 25 46 25 C46 28.63 46 32.26 46 36 C35.44 36 24.88 36 14 36 C14 41.94 14 47.88 14 54 C25.88 54 37.76 54 50 54 C50 57.63 50 61.26 50 65 C33.5 65 17 65 0 65 C0 43.55 0 22.1 0 0 Z "
        fill="#0B0B0B" transform="translate(985,109)" />
    <path
        d="M0 0 C16.17 0 32.34 0 49 0 C49 3.63 49 7.26 49 11 C37.45 11 25.9 11 14 11 C14 15.62 14 20.24 14 25 C24.56 25 35.12 25 46 25 C46 28.63 46 32.26 46 36 C35.44 36 24.88 36 14 36 C14 41.94 14 47.88 14 54 C25.88 54 37.76 54 50 54 C50 57.63 50 61.26 50 65 C33.5 65 17 65 0 65 C0 43.55 0 22.1 0 0 Z "
        fill="#0B0B0B" transform="translate(845,109)" />
    <path
        d="M0 0 C16.17 0 32.34 0 49 0 C49 3.63 49 7.26 49 11 C37.45 11 25.9 11 14 11 C14 15.62 14 20.24 14 25 C24.56 25 35.12 25 46 25 C46 28.63 46 32.26 46 36 C35.44 36 24.88 36 14 36 C14 41.94 14 47.88 14 54 C25.88 54 37.76 54 50 54 C50 57.63 50 61.26 50 65 C33.5 65 17 65 0 65 C0 43.55 0 22.1 0 0 Z "
        fill="#0B0B0B" transform="translate(522,109)" />
    <path
        d="M0 0 C16.17 0 32.34 0 49 0 C49 3.63 49 7.26 49 11 C37.45 11 25.9 11 14 11 C14 15.62 14 20.24 14 25 C24.56 25 35.12 25 46 25 C46 28.63 46 32.26 46 36 C35.44 36 24.88 36 14 36 C14 41.94 14 47.88 14 54 C25.88 54 37.76 54 50 54 C50 57.63 50 61.26 50 65 C33.5 65 17 65 0 65 C0 43.55 0 22.1 0 0 Z "
        fill="#0B0B0B" transform="translate(462,109)" />
    <path
        d="M0 0 C4.62 0 9.24 0 14 0 C14 8.58 14 17.16 14 26 C22.25 26 30.5 26 39 26 C39 17.42 39 8.84 39 0 C43.29 0 47.58 0 52 0 C52 21.45 52 42.9 52 65 C47.71 65 43.42 65 39 65 C39 55.76 39 46.52 39 37 C30.75 37 22.5 37 14 37 C14 46.24 14 55.48 14 65 C9.38 65 4.76 65 0 65 C0 43.55 0 22.1 0 0 Z "
        fill="#0D0D0D" transform="translate(1413,109)" />
    <path
        d="M0 0 C1.93166016 0.01740234 1.93166016 0.01740234 3.90234375 0.03515625 C5.19269531 0.04417969 6.48304688 0.05320312 7.8125 0.0625 C8.81152344 0.07410156 9.81054688 0.08570312 10.83984375 0.09765625 C14.41926346 6.91055468 17.24736393 13.92835457 20.04296875 21.09375 C20.53022099 22.33556273 21.01775436 23.57726519 21.5055542 24.81886292 C22.51967202 27.402356 23.53132596 29.98679463 24.54101562 32.57202148 C25.83749732 35.89134679 27.13881084 39.20875147 28.44176102 42.52554226 C29.68578119 45.69334821 30.92685421 48.86230445 32.16796875 52.03125 C32.63664368 53.22592392 33.1053186 54.42059784 33.5881958 55.651474 C34.01574158 56.74673904 34.44328735 57.84200409 34.88378906 58.97045898 C35.26255188 59.93894272 35.6413147 60.90742645 36.03155518 61.90525818 C36.83984375 64.09765625 36.83984375 64.09765625 36.83984375 65.09765625 C31.88984375 65.09765625 26.93984375 65.09765625 21.83984375 65.09765625 C16.83984375 53.47265625 16.83984375 53.47265625 16.83984375 50.09765625 C8.25984375 50.09765625 -0.32015625 50.09765625 -9.16015625 50.09765625 C-9.49015625 52.07765625 -9.82015625 54.05765625 -10.16015625 56.09765625 C-11.3365656 59.18750249 -12.75246804 62.10064265 -14.16015625 65.09765625 C-18.78015625 65.09765625 -23.40015625 65.09765625 -28.16015625 65.09765625 C-25.94867494 57.33130563 -23.24987931 49.86122369 -20.30859375 42.34375 C-19.84909332 41.16168472 -19.3895929 39.97961945 -18.91616821 38.76173401 C-17.95149524 36.28271208 -16.98537077 33.80432164 -16.01660156 31.3269043 C-14.77354058 28.14763747 -13.53638726 24.96611043 -12.30103111 21.78384304 C-11.11880286 18.74023951 -9.93233355 15.69829183 -8.74609375 12.65625 C-8.30131683 11.51159775 -7.85653992 10.3669455 -7.39828491 9.18760681 C-6.98760773 8.13883865 -6.57693054 7.0900705 -6.15380859 6.00952148 C-5.61111832 4.61913918 -5.61111832 4.61913918 -5.0574646 3.20066833 C-3.74113901 0.11560998 -3.74113901 0.11560998 0 0 Z M2.83984375 18.09765625 C1.66489232 21.03190996 0.50133523 23.97055138 -0.66015625 26.91015625 C-0.99402344 27.74353516 -1.32789063 28.57691406 -1.671875 29.43554688 C-1.98769531 30.23798828 -2.30351563 31.04042969 -2.62890625 31.8671875 C-3.06879883 32.97477417 -3.06879883 32.97477417 -3.51757812 34.10473633 C-4.31359291 36.22453937 -4.31359291 36.22453937 -4.16015625 39.09765625 C1.11984375 39.09765625 6.39984375 39.09765625 11.83984375 39.09765625 C8.9501588 28.87416819 8.9501588 28.87416819 4.83984375 19.09765625 C4.17984375 18.76765625 3.51984375 18.43765625 2.83984375 18.09765625 Z "
        fill="#0F0F0F" transform="translate(749.16015625,108.90234375)" />
    <path
        d="M0 0 C4.64964097 3.46767616 8.68805242 7.79567385 10.08984375 13.55859375 C9.75984375 14.87859375 9.42984375 16.19859375 9.08984375 17.55859375 C5.12984375 17.88859375 1.16984375 18.21859375 -2.91015625 18.55859375 C-3.40515625 17.46546875 -3.90015625 16.37234375 -4.41015625 15.24609375 C-6.54569171 11.55948517 -8.63399062 10.08592615 -12.69140625 8.8671875 C-18.17331875 8.1047384 -22.46490408 9.48234214 -26.84765625 12.74609375 C-32.05391602 19.84553889 -31.51595753 28.05814409 -30.91015625 36.55859375 C-30.06516771 41.58592051 -28.96828861 44.59665524 -25.16015625 48.05859375 C-20.08098634 50.40282602 -16.66832658 51.0353857 -11.22265625 49.55859375 C-6.28443806 46.57702805 -4.73094325 43.02095474 -2.91015625 37.55859375 C-1.32547897 37.84286792 0.25754945 38.13634193 1.83984375 38.43359375 C3.16242188 38.67722656 3.16242188 38.67722656 4.51171875 38.92578125 C6.95932119 39.52655639 8.89584232 40.33856492 11.08984375 41.55859375 C7.71616802 51.09535309 4.38554644 56.99524879 -4.91015625 61.55859375 C-12.03085319 63.92165689 -22.06543487 63.79428641 -28.97265625 60.87109375 C-36.59353141 56.78848206 -41.72599253 51.36404671 -44.66015625 43.12109375 C-47.70451187 32.03094113 -46.79203045 20.42483387 -41.7265625 10.16015625 C-37.86324283 3.57171874 -32.29506989 -0.60872556 -25.05078125 -3.07421875 C-16.41986055 -4.55470515 -7.66992064 -4.50496171 0 0 Z "
        fill="#161616" transform="translate(1391.91015625,111.44140625)" />
    <path
        d="M0 0 C4.95 0 9.9 0 15 0 C19.95 14.52 24.9 29.04 30 44 C32.42202053 37.94494868 34.75352644 32.01813289 36.76171875 25.83984375 C37.1159063 24.76592125 37.1159063 24.76592125 37.47724915 23.67030334 C38.21699481 21.42700709 38.95274541 19.18243553 39.6875 16.9375 C40.66715033 13.94547539 41.65074132 10.95478842 42.63671875 7.96484375 C42.85962082 7.27954086 43.08252289 6.59423798 43.31217957 5.88816833 C44.88724855 1.11275145 44.88724855 1.11275145 46 0 C48.35313555 -0.07271741 50.70833668 -0.08370868 53.0625 -0.0625 C54.35285156 -0.05347656 55.64320313 -0.04445313 56.97265625 -0.03515625 C57.97167969 -0.02355469 58.97070312 -0.01195313 60 0 C57.9458863 8.04368355 55.40446435 15.82718271 52.5859375 23.6328125 C51.96327499 25.37049393 51.96327499 25.37049393 51.32803345 27.14328003 C50.45767905 29.56922419 49.58528638 31.99443796 48.7109375 34.41894531 C47.3670062 38.14717578 46.03071256 41.87808136 44.6953125 45.609375 C43.8468013 47.97151483 42.99785866 50.33349974 42.1484375 52.6953125 C41.74740814 53.81495392 41.34637878 54.93459534 40.93319702 56.08816528 C40.56256134 57.113685 40.19192566 58.13920471 39.81005859 59.19580078 C39.48379486 60.10194122 39.15753113 61.00808167 38.82138062 61.94168091 C38 64 38 64 37 65 C34.46950598 65.07313567 31.96695163 65.09247527 29.4375 65.0625 C28.72658203 65.05798828 28.01566406 65.05347656 27.28320312 65.04882812 C25.52209987 65.03700864 23.76103964 65.01907263 22 65 C21.37339478 63.19535278 21.37339478 63.19535278 20.73413086 61.35424805 C19.14981969 56.79291528 17.56314207 52.23240841 15.97583008 47.67211914 C15.29551965 45.71660657 14.61580988 43.76088492 13.93676758 41.80493164 C12.94779722 38.95660918 11.95693446 36.10895582 10.96484375 33.26171875 C10.63801605 32.32327118 10.31118835 31.38482361 9.97445679 30.41793823 C7.44680331 23.19521457 4.81655962 16.01342716 2.08518982 8.86515808 C0 3.32409396 0 3.32409396 0 0 Z "
        fill="#131313" transform="translate(779,109)" />
    <path
        d="M0 0 C16.83 0 33.66 0 51 0 C51 3.63 51 7.26 51 11 C44.73 11 38.46 11 32 11 C32 28.82 32 46.64 32 65 C27.71 65 23.42 65 19 65 C19 47.18 19 29.36 19 11 C12.73 11 6.46 11 0 11 C0 7.37 0 3.74 0 0 Z "
        fill="#020202" transform="translate(1229,109)" />
    <path
        d="M0 0 C16.83 0 33.66 0 51 0 C51 3.63 51 7.26 51 11 C44.73 11 38.46 11 32 11 C32 28.82 32 46.64 32 65 C27.71 65 23.42 65 19 65 C19 47.18 19 29.36 19 11 C12.73 11 6.46 11 0 11 C0 7.37 0 3.74 0 0 Z "
        fill="#020202" transform="translate(926,109)" />
    <path
        d="M0 0 C0.66 0.33 1.32 0.66 2 1 C-2.29 5.29 -6.58 9.58 -11 14 C-10.67 14.66 -10.34 15.32 -10 16 C-12.31 16.66 -14.62 17.32 -17 18 C-13.29020249 10.58040497 -6.3787719 5.10301752 0 0 Z "
        fill="#5A5A5A" transform="translate(65,38)" />
    <path d="M0 0 C2.5 2.3125 2.5 2.3125 5 5 C5 8 5 8 2 12 C1.34 8.04 0.68 4.08 0 0 Z " fill="#6DCF6D"
        transform="translate(16,175)" />
    <path
        d="M0 0 C0.66 0.33 1.32 0.66 2 1 C-1.3 4.3 -4.6 7.6 -8 11 C-8 6.67750434 -5.85084926 5.11604454 -3 2 C-2.01 1.34 -1.02 0.68 0 0 Z "
        fill="#595959" transform="translate(339,112)" />
    <path
        d="M0 0 C0.66 0.33 1.32 0.66 2 1 C-0.97 3.97 -3.94 6.94 -7 10 C-7 6.04435836 -5.59478606 4.89133304 -3 2 C-2.01 1.34 -1.02 0.68 0 0 Z "
        fill="#616161" transform="translate(1359,112)" />
</svg>